<svg xmlns="http://www.w3.org/2000/svg" width="129.164" height="17.289" viewBox="0 0 129.164 17.289"><g transform="translate(-116.59 -334.483)"><path d="M117.664,346c0,.636-.277.878-.791.878h-.283v.447h8.464c3.376,0,5.307-1.094,5.307-3.409,0-1.738-1.093-2.783-3.811-3.115a2.93,2.93,0,0,0,2.476-2.669c0-2.052-2.049-2.888-4.767-2.888H116.59v.45h.283c.514,0,.791.24.791.875V346m2.137-9.7h3.556c2.662,0,3.555.577,3.555,1.847,0,1.285-.777,2.264-3.68,2.264h-3.445Zm4.424,5.254c2.651,0,3.762,1.084,3.762,2.39,0,1.215-.809,2.03-3.828,2.03H119.8v-4.421Z" transform="translate(0 -0.493)" fill="#fff"/><path d="M408.711,336.228v4.982l3.209,0c2.536,0,3.73-.947,3.73-2.52,0-1.545-1.161-2.464-3.8-2.464h-3.143m5.364,5.677a2.522,2.522,0,0,1,2.428,1.42l1.231,2.241a2.613,2.613,0,0,0,2.445,1.421v.34h-1.542c-.7,0-2.037.086-2.786-.829l-1.608-2.654a2.415,2.415,0,0,0-2.611-1.416h-2.922l0,3.574c0,.636.277.878.8.878h.278v.447h-4.281v-.447h.282c.516,0,.794-.242.794-.878V336.57c0-.635-.278-.875-.794-.875h-.282v-.45h7.138c4.143,0,5.3,1.7,5.3,3.327,0,1.851-1.459,2.933-3.872,3.332" transform="translate(-186.968 -0.493)" fill="#fff"/><path d="M473.7,336.572c0-.634.28-.876.794-.876h.282v-.449H470.5v.449h.278c.517,0,.794.242.794.876V346c0,.636-.277.878-.794.878H470.5v.447h4.282v-.447H474.5c-.514,0-.793-.242-.793-.878v-9.431" transform="translate(-229.025 -0.494)" fill="#fff"/><path d="M237.756,335.245v.45h-.281c-.515,0-.793.241-.793.875v9.419h6.111a2.761,2.761,0,0,0,2.255-1.3l.42.157-1.246,2.489-10.739-.008v-.449h.282c.516,0,.793-.242.793-.876V336.57c0-.635-.277-.875-.793-.875h-.282v-.45h4.273" transform="translate(-75.645 -0.493)" fill="#fff"/><path d="M185.732,335.247v.449h-.278c-.631,0-.7.328-.978.84l-5.532,10.793h-1.774l-5.6-10.79c-.275-.51-.349-.842-.978-.842h-.28v-.449h4.434v.449h-.279c-.59,0-.82.4-.549.942l4.529,8.723,4.466-8.723c.274-.538.044-.942-.547-.942h-.278v-.449h3.64" transform="translate(-34.769 -0.494)" fill="#fff"/><path d="M296.885,341.089v.449h-.492c-.515,0-.793.242-.793.874v2.24c-.752,1.257-3.163,2.6-6.842,2.6-5.214,0-8.535-2.881-8.535-6.437,0-2.936,3.127-6.332,8.45-6.332a11.565,11.565,0,0,1,5.817,1.456c0,.045.648,2.692.647,2.7s-.462.172-.462.172a6.124,6.124,0,0,0-5.742-3.334c-3.753-.013-6.309,2.7-6.309,5.346,0,2.922,2.52,5.328,6.309,5.312,2.362-.008,4.606-1.233,4.6-2.119l.006-1.6c0-.632-.28-.874-.794-.874h-.493v-.449h4.631" transform="translate(-105.892)" fill="#fff"/><path d="M352.009,342.755l-2.928-5.665,0,.008-2.834,5.657h5.766m5.347,4.146v.447H352.88V346.9h.279c.594,0,.818-.4.547-.941l-1.045-1.862h-7.119l-.968,1.862c-.273.538-.047.941.542.941h.28l0,.447h-3.709V346.9h.281c.441,0,.645-.161.9-.634l5.793-10.989h1.63l5.767,10.772c.046.077.085.15.125.217.252.472.457.634.9.634Z" transform="translate(-145.666 -0.514)" fill="#fff"/><g transform="translate(214.957 348.263)"><path d="M396.235,374.048v1.367h.881c.7,0,1.024-.26,1.024-.692s-.319-.677-1.042-.677h-.863m1.472,1.558a.691.691,0,0,1,.666.39l.338.615a.717.717,0,0,0,.671.39v.093h-.423a.934.934,0,0,1-.764-.228l-.441-.728a.663.663,0,0,0-.717-.389h-.8v.981c0,.175.076.241.218.241h.076v.123h-1.175v-.123h.077c.141,0,.218-.066.218-.241v-2.589c0-.174-.077-.24-.218-.24h-.077v-.124h1.959c1.137,0,1.455.465,1.455.913,0,.508-.4.8-1.062.915" transform="translate(-395.356 -373.693)" fill="#fff"/><path d="M413.066,373.6a2.14,2.14,0,0,0-.351-.05c-.106-.01-.214-.016-.327-.016v0h-.036c-1.461,0-2.319.933-2.319,1.738a1.6,1.6,0,0,0,.781,1.353l0,.01a1.678,1.678,0,0,0,.227.119,3.006,3.006,0,0,0,1.332.284v0h.036c1.461,0,2.319-.933,2.319-1.738A1.833,1.833,0,0,0,413.066,373.6Zm-.648,3.135a1.56,1.56,0,0,1-1.728-1.458,1.58,1.58,0,0,1,1.664-1.437,1.558,1.558,0,0,1,1.717,1.457A1.585,1.585,0,0,1,412.419,376.738Z" transform="translate(-404.853 -373.536)" fill="#fff"/><path d="M448.929,375.809l-.8-1.555v0l-.778,1.553h1.582m1.468,1.138v.123h-1.229v-.123h.077c.163,0,.225-.11.15-.258l-.287-.511h-1.954l-.266.511c-.075.148-.013.258.149.258h.077v.123h-1.018v-.123h.077c.121,0,.177-.044.246-.174l1.59-3.016h.447l1.583,2.956.034.06c.069.129.126.174.247.174Z" transform="translate(-428.191 -373.679)" fill="#fff"/><path d="M432.374,376.655l0-.571v-1.773a.879.879,0,0,1,.018-.194l0-.016h0a.237.237,0,0,1,.119-.174.093.093,0,0,1,.037-.016h.005l.053-.006h.016c.026,0,.021,0,.062-.006v-.124h-1.078l-1.348,2.392-1.366-2.392h-.985v.12a.259.259,0,0,1,.309.2l.007,1.4v1.163a.3.3,0,0,1-.316.313v.123h.489v0h.454v-.123a.282.282,0,0,1-.309-.235l-.011-2.095v-.285l1.55,2.744h.084l1.107-2.006.471-.846v1.621h0v.8a.3.3,0,0,1-.329.313v.123H432.7v-.123A.3.3,0,0,1,432.374,376.655Z" transform="translate(-416.422 -373.689)" fill="#fff"/></g></g></svg>